<svg width="26" height="33" xmlns="http://www.w3.org/2000/svg"><path d="M25.984 27.213L24.52 8.643a2.312 2.312 0 00-2.289-2.133H19.34v-.131C19.339 2.862 16.495 0 13 0 9.505 0 6.662 2.862 6.662 6.379v.13H3.769A2.311 2.311 0 001.48 8.642L.015 27.216a5.41 5.41 0 001.407 4.062A5.34 5.34 0 005.339 33h15.322a5.34 5.34 0 003.917-1.722 5.412 5.412 0 001.406-4.065zM8.582 6.38c0-2.452 1.982-4.446 4.418-4.446s4.418 1.994 4.418 4.446v.13H8.582v-.13zM23.17 29.965a3.374 3.374 0 01-2.508 1.102H5.339a3.374 3.374 0 01-2.508-1.102 3.416 3.416 0 01-.9-2.599L3.395 8.791a.378.378 0 01.374-.348h2.893v2.38c0 .534.43.967.96.967s.96-.433.96-.967v-2.38h8.836v2.38c0 .534.43.967.96.967s.96-.433.96-.967v-2.38h2.893c.195 0 .359.153.374.35l1.465 18.57a3.418 3.418 0 01-.901 2.602z" fill="#FFF" fill-rule="nonzero"/></svg>